<?xml version="1.0" standalone="no"?><!DOCTYPE svg PUBLIC "-//W3C//DTD SVG 1.1//EN" "http://www.w3.org/Graphics/SVG/1.1/DTD/svg11.dtd"><svg t="1769154985811" class="icon" viewBox="0 0 1024 1024" version="1.1" xmlns="http://www.w3.org/2000/svg" p-id="28543" xmlns:xlink="http://www.w3.org/1999/xlink" width="200" height="200"><path d="M486.4 466.5344C274.3296 466.5344 102.4 385.024 102.4 284.4672S274.3296 102.4 486.4 102.4C698.4704 102.4 870.4 183.9104 870.4 284.4672s-171.9296 182.0672-384 182.0672zM135.0656 412.8256c59.5968 63.8976 194.4576 108.4928 351.3344 108.4928 156.8256 0 291.7376-44.544 351.3344-108.4928 20.992 22.528 32.6656 47.4112 32.6656 73.5744 0 49.92-42.3424 95.1296-110.8992 128H213.2992C144.6912 581.5296 102.4 536.32 102.4 486.4c0-26.1632 11.6736-51.0976 32.6656-73.5744zM204.8 670.0032c-30.0032-15.36-54.528-33.1776-72.0384-52.736-19.5584 21.8112-30.3616 45.8752-30.3616 71.0656 0 47.8208 38.8608 91.2896 102.4 123.8016v-142.1312z" fill="#7793fe" p-id="28544" data-spm-anchor-id="a313x.search_index.0.i0.7fa23a81uLULRO" class=""></path><path d="M438.6816 914.2784V972.8H256v-307.2h176.8448v58.5216H319.2832v63.232h105.2672v56.2176H319.2832v70.7072h119.3984zM653.312 972.8l-68.0448-111.9744h-31.3344V972.8H490.7008v-307.2h98.4576q29.184 0 50.2272 5.3248 21.0432 5.3248 34.816 16.896 13.824 11.52 20.1728 30.1056 6.5536 18.5856 6.5536 45.056 0 38.5024-13.2096 60.2624-13.1584 21.6064-41.1136 30.5152L728.064 972.8h-74.7008z m-73.8816-161.9456q15.872 0 27.136-2.048 11.3152-1.9968 18.1248-7.3216 6.912-5.3248 10.0352-14.5408 3.072-9.3696 3.072-23.9616 0-13.6704-3.072-22.3232-3.1232-8.6528-10.0352-13.5168-6.8096-4.9152-18.0736-6.656-11.264-1.7408-27.136-1.7408h-25.6v92.1088h25.6zM760.1152 665.6h98.8672q32.4608 0 54.3232 6.0416 22.016 5.9392 35.0208 18.5856 13.2096 12.544 18.7904 32.256 5.6832 19.6096 5.6832 47.616 0 30.1056-6.2464 50.688t-20.1216 33.4336q-13.6704 12.8-35.4304 18.432-21.6064 5.4784-52.0192 5.4784h-35.584V972.8h-63.2832v-307.2z m90.4704 158.5152q16.2816 0 27.136-2.4576 10.8544-2.4576 17.664-8.6528 6.912-6.1952 9.7792-16.128 2.9696-9.9328 2.9696-25.4976 0-14.592-2.9696-24.6784-2.8672-10.24-9.728-16.384-6.8608-6.1952-17.9712-8.8064-11.008-2.7648-26.88-2.7648h-27.136v105.3696h27.136z" fill="#523ff8" p-id="28545" data-spm-anchor-id="a313x.search_index.0.i2.7fa23a81uLULRO" class=""></path></svg>